# xmcd
#
# Track frame offsets:
#	150
#	16248
#	31750
#	49366
#	70146
#	87286
#	108840
#	129269
#	150113
#	167659
#
# Disc length: 2482 seconds
# Revision: 0
# Processed by: cddbd v1.5.2PL0 Copyright (c) Steve Scherf et al.
# Submitted via: dBpowerAMP V12.0
#
DISCID=6a09b00a
DTITLE=Calico the Band - Rancho California
DYEAR=2014
DGENRE=Country
TTITLE0=High Road
TTITLE1=Dead Reckoning
TTITLE2=San Andreas Shake
TTITLE3=Fool's Gold
TTITLE4=Break Your Heart
TTITLE5=Runaway Cowgirl
TTITLE6=Wayfaring Stranger
TTITLE7=Lone Ranger
TTITLE8=Never Really Gone
TTITLE9=You Ain't Goin' Nowhere
EXTD=
EXTT0=
EXTT1=
EXTT2=
EXTT3=
EXTT4=
EXTT5=
EXTT6=
EXTT7=
EXTT8=
EXTT9=
PLAYORDER=
